<svg width="177" height="47" viewBox="0 0 177 47" fill="none" xmlns="http://www.w3.org/2000/svg">
<path d="M55.7909 32.0619C55.335 32.0619 54.9746 31.9343 54.7099 31.679C54.4599 31.4087 54.3349 31.0258 54.3349 30.5303V17.5339C54.3349 17.0383 54.4599 16.6629 54.7099 16.4077C54.9746 16.1374 55.3497 16.0022 55.835 16.0022H63.5339C63.9163 16.0022 64.203 16.0998 64.3942 16.295C64.5854 16.4903 64.681 16.7681 64.681 17.1284C64.681 17.5038 64.5854 17.7967 64.3942 18.0069C64.203 18.2021 63.9163 18.2997 63.5339 18.2997H57.1586V22.782H63.0706C63.4383 22.782 63.7177 22.8796 63.9089 23.0748C64.1148 23.27 64.2178 23.5478 64.2178 23.9082C64.2178 24.2836 64.1148 24.5764 63.9089 24.7866C63.7177 24.9818 63.4383 25.0794 63.0706 25.0794H57.1586V30.5303C57.1586 31.5514 56.7027 32.0619 55.7909 32.0619Z" fill="white"/>
<path d="M68.7083 32.0394C68.2671 32.0394 67.9289 31.9042 67.6936 31.634C67.4583 31.3637 67.3406 30.9883 67.3406 30.5078V22.2414C67.3406 21.7459 67.4583 21.3705 67.6936 21.1152C67.9289 20.8449 68.2671 20.7098 68.7083 20.7098C69.1495 20.7098 69.4878 20.8449 69.7231 21.1152C69.9731 21.3705 70.0981 21.7459 70.0981 22.2414V30.5078C70.0981 30.9883 69.9804 31.3637 69.7451 31.634C69.5098 31.9042 69.1642 32.0394 68.7083 32.0394ZM68.7083 18.615C68.1936 18.615 67.7892 18.4874 67.495 18.2321C67.2156 17.9618 67.0759 17.5939 67.0759 17.1284C67.0759 16.6479 67.2156 16.28 67.495 16.0248C67.7892 15.7695 68.1936 15.6418 68.7083 15.6418C69.2378 15.6418 69.6422 15.7695 69.9216 16.0248C70.201 16.28 70.3408 16.6479 70.3408 17.1284C70.3408 17.5939 70.201 17.9618 69.9216 18.2321C69.6422 18.4874 69.2378 18.615 68.7083 18.615Z" fill="white"/>
<path d="M74.331 32.0619C73.8898 32.0619 73.5516 31.9418 73.3163 31.7015C73.081 31.4463 72.9633 31.0859 72.9633 30.6204V22.1063C72.9633 21.6408 73.081 21.2879 73.3163 21.0476C73.5516 20.8074 73.8825 20.6872 74.309 20.6872C74.7355 20.6872 75.0664 20.8074 75.3017 21.0476C75.537 21.2879 75.6546 21.6408 75.6546 22.1063V23.6379L75.412 23.0748C75.7355 22.2789 76.2355 21.6783 76.912 21.2729C77.6032 20.8524 78.3827 20.6422 79.2504 20.6422C80.1181 20.6422 80.8313 20.8074 81.3902 21.1377C81.9491 21.4681 82.3682 21.9711 82.6476 22.6468C82.927 23.3075 83.0668 24.1484 83.0668 25.1695V30.6204C83.0668 31.0859 82.9491 31.4463 82.7138 31.7015C82.4785 31.9418 82.1402 32.0619 81.699 32.0619C81.2578 32.0619 80.9122 31.9418 80.6622 31.7015C80.4269 31.4463 80.3093 31.0859 80.3093 30.6204V25.3047C80.3093 24.4488 80.1475 23.8256 79.8239 23.4352C79.5151 23.0448 79.0298 22.8496 78.368 22.8496C77.5591 22.8496 76.912 23.1123 76.4267 23.6379C75.9561 24.1484 75.7208 24.8317 75.7208 25.6876V30.6204C75.7208 31.5814 75.2575 32.0619 74.331 32.0619Z" fill="white"/>
<path d="M90.0148 32.107C89.0735 32.107 88.2426 31.8742 87.522 31.4087C86.8161 30.9432 86.2646 30.2825 85.8675 29.4266C85.4704 28.5557 85.2719 27.5346 85.2719 26.3633C85.2719 25.177 85.4704 24.1635 85.8675 23.3226C86.2646 22.4666 86.8161 21.8059 87.522 21.3404C88.2426 20.8749 89.0735 20.6422 90.0148 20.6422C90.9119 20.6422 91.6913 20.8674 92.3531 21.3179C93.0296 21.7684 93.4855 22.3615 93.7208 23.0973H93.4782V17.2411C93.4782 16.7756 93.5958 16.4227 93.8311 16.1824C94.0664 15.9422 94.4047 15.822 94.8459 15.822C95.2871 15.822 95.6253 15.9422 95.8607 16.1824C96.1107 16.4227 96.2357 16.7756 96.2357 17.2411V30.6204C96.2357 31.0859 96.118 31.4463 95.8827 31.7015C95.6474 31.9418 95.3092 32.0619 94.868 32.0619C94.4268 32.0619 94.0885 31.9418 93.8532 31.7015C93.6179 31.4463 93.5002 31.0859 93.5002 30.6204V28.8635L93.7429 29.5392C93.5223 30.3201 93.0737 30.9432 92.3972 31.4087C91.7207 31.8742 90.9266 32.107 90.0148 32.107ZM90.7869 29.9672C91.331 29.9672 91.809 29.832 92.2208 29.5617C92.6325 29.2914 92.9487 28.8935 93.1693 28.368C93.4046 27.8274 93.5223 27.1592 93.5223 26.3633C93.5223 25.162 93.2723 24.2686 92.7723 23.6829C92.2722 23.0823 91.6104 22.782 90.7869 22.782C90.2427 22.782 89.7648 22.9171 89.353 23.1874C88.9412 23.4427 88.6176 23.8406 88.3823 24.3812C88.1617 24.9068 88.0514 25.5675 88.0514 26.3633C88.0514 27.5496 88.3015 28.4505 88.8015 29.0662C89.3015 29.6669 89.9633 29.9672 90.7869 29.9672Z" fill="white"/>
<path d="M99.3816 32.0394C99.0875 32.0394 98.8522 31.9718 98.6757 31.8367C98.4992 31.7015 98.3963 31.5213 98.3669 31.2961C98.3375 31.0709 98.3816 30.8156 98.4992 30.5303L104.477 16.8356C104.625 16.4752 104.808 16.22 105.029 16.0698C105.264 15.9196 105.522 15.8446 105.801 15.8446C106.066 15.8446 106.308 15.9196 106.529 16.0698C106.764 16.22 106.956 16.4752 107.103 16.8356L113.081 30.5303C113.213 30.8156 113.265 31.0784 113.235 31.3186C113.206 31.5439 113.11 31.7241 112.948 31.8592C112.787 31.9793 112.559 32.0394 112.265 32.0394C111.941 32.0394 111.684 31.9568 111.493 31.7916C111.301 31.6264 111.132 31.3712 110.985 31.0258L109.441 27.3769L110.478 28.0076H101.08L102.095 27.3769L100.573 31.0258C100.426 31.3862 100.264 31.649 100.088 31.8141C99.9111 31.9643 99.6758 32.0394 99.3816 32.0394ZM105.757 18.5925L102.426 26.6561L101.874 26.1156H109.662L109.154 26.6561L105.801 18.5925H105.757Z" fill="white"/>
<path d="M117.059 32.0619C116.603 32.0619 116.243 31.9343 115.978 31.679C115.728 31.4087 115.603 31.0258 115.603 30.5303V17.5339C115.603 17.0383 115.728 16.6629 115.978 16.4077C116.243 16.1374 116.618 16.0022 117.103 16.0022H124.802C125.184 16.0022 125.471 16.0998 125.662 16.295C125.853 16.4903 125.949 16.7681 125.949 17.1284C125.949 17.5038 125.853 17.7967 125.662 18.0069C125.471 18.2021 125.184 18.2997 124.802 18.2997H118.427V22.782H124.339C124.706 22.782 124.986 22.8796 125.177 23.0748C125.383 23.27 125.486 23.5478 125.486 23.9082C125.486 24.2836 125.383 24.5764 125.177 24.7866C124.986 24.9818 124.706 25.0794 124.339 25.0794H118.427V30.5303C118.427 31.5514 117.971 32.0619 117.059 32.0619Z" fill="white"/>
<path d="M128.922 32.0619C128.466 32.0619 128.113 31.9418 127.863 31.7015C127.628 31.4463 127.51 31.0859 127.51 30.6204V22.1063C127.51 21.6408 127.628 21.2879 127.863 21.0476C128.098 20.8074 128.429 20.6872 128.856 20.6872C129.282 20.6872 129.613 20.8074 129.848 21.0476C130.084 21.2879 130.201 21.6408 130.201 22.1063V23.5253H129.981C130.187 22.6243 130.591 21.9411 131.194 21.4756C131.797 21.0101 132.598 20.7323 133.598 20.6422C133.907 20.6122 134.15 20.6948 134.326 20.89C134.518 21.0702 134.628 21.3555 134.657 21.7459C134.687 22.1213 134.599 22.4291 134.393 22.6694C134.201 22.8946 133.907 23.0297 133.51 23.0748L133.025 23.1198C132.128 23.2099 131.451 23.4952 130.995 23.9758C130.539 24.4413 130.312 25.102 130.312 25.9579V30.6204C130.312 31.0859 130.194 31.4463 129.959 31.7015C129.723 31.9418 129.378 32.0619 128.922 32.0619Z" fill="white"/>
<path d="M137.516 32.0394C137.075 32.0394 136.737 31.9042 136.502 31.634C136.266 31.3637 136.149 30.9883 136.149 30.5078V22.2414C136.149 21.7459 136.266 21.3705 136.502 21.1152C136.737 20.8449 137.075 20.7098 137.516 20.7098C137.958 20.7098 138.296 20.8449 138.531 21.1152C138.781 21.3705 138.906 21.7459 138.906 22.2414V30.5078C138.906 30.9883 138.788 31.3637 138.553 31.634C138.318 31.9042 137.972 32.0394 137.516 32.0394ZM137.516 18.615C137.002 18.615 136.597 18.4874 136.303 18.2321C136.024 17.9618 135.884 17.5939 135.884 17.1284C135.884 16.6479 136.024 16.28 136.303 16.0248C136.597 15.7695 137.002 15.6418 137.516 15.6418C138.046 15.6418 138.45 15.7695 138.73 16.0248C139.009 16.28 139.149 16.6479 139.149 17.1284C139.149 17.5939 139.009 17.9618 138.73 18.2321C138.45 18.4874 138.046 18.615 137.516 18.615Z" fill="white"/>
<path d="M147.088 32.107C145.867 32.107 144.816 31.8742 143.933 31.4087C143.051 30.9432 142.367 30.2825 141.882 29.4266C141.411 28.5707 141.176 27.5571 141.176 26.3858C141.176 25.2446 141.404 24.2461 141.86 23.3901C142.33 22.5342 142.97 21.866 143.779 21.3855C144.602 20.89 145.536 20.6422 146.58 20.6422C147.345 20.6422 148.029 20.7698 148.632 21.0251C149.25 21.2804 149.772 21.6483 150.198 22.1288C150.639 22.6093 150.97 23.1949 151.191 23.8857C151.426 24.5614 151.544 25.3272 151.544 26.1831C151.544 26.4534 151.448 26.6636 151.257 26.8138C151.081 26.9489 150.823 27.0165 150.485 27.0165H143.404V25.3948H149.603L149.25 25.7326C149.25 25.0419 149.147 24.4638 148.941 23.9983C148.75 23.5328 148.463 23.1799 148.08 22.9397C147.713 22.6844 147.25 22.5567 146.691 22.5567C146.073 22.5567 145.544 22.7069 145.102 23.0072C144.676 23.2925 144.345 23.7055 144.11 24.2461C143.889 24.7716 143.779 25.4023 143.779 26.1381V26.2957C143.779 27.5271 144.058 28.4505 144.617 29.0662C145.191 29.6669 146.029 29.9672 147.132 29.9672C147.514 29.9672 147.941 29.9221 148.411 29.832C148.897 29.7269 149.353 29.5542 149.779 29.314C150.088 29.1338 150.36 29.0587 150.595 29.0887C150.831 29.1037 151.014 29.1863 151.147 29.3365C151.294 29.4867 151.382 29.6744 151.412 29.8996C151.441 30.1098 151.397 30.3276 151.279 30.5528C151.176 30.778 150.992 30.9732 150.728 31.1384C150.213 31.4688 149.617 31.7165 148.941 31.8817C148.279 32.0319 147.661 32.107 147.088 32.107Z" fill="white"/>
<path d="M155.095 32.0619C154.654 32.0619 154.316 31.9418 154.081 31.7015C153.845 31.4463 153.728 31.0859 153.728 30.6204V22.1063C153.728 21.6408 153.845 21.2879 154.081 21.0476C154.316 20.8074 154.647 20.6872 155.073 20.6872C155.5 20.6872 155.831 20.8074 156.066 21.0476C156.301 21.2879 156.419 21.6408 156.419 22.1063V23.6379L156.176 23.0748C156.5 22.2789 157 21.6783 157.676 21.2729C158.368 20.8524 159.147 20.6422 160.015 20.6422C160.882 20.6422 161.596 20.8074 162.155 21.1377C162.713 21.4681 163.133 21.9711 163.412 22.6468C163.691 23.3075 163.831 24.1484 163.831 25.1695V30.6204C163.831 31.0859 163.713 31.4463 163.478 31.7015C163.243 31.9418 162.905 32.0619 162.463 32.0619C162.022 32.0619 161.677 31.9418 161.427 31.7015C161.191 31.4463 161.074 31.0859 161.074 30.6204V25.3047C161.074 24.4488 160.912 23.8256 160.588 23.4352C160.279 23.0448 159.794 22.8496 159.132 22.8496C158.323 22.8496 157.676 23.1123 157.191 23.6379C156.72 24.1484 156.485 24.8317 156.485 25.6876V30.6204C156.485 31.5814 156.022 32.0619 155.095 32.0619Z" fill="white"/>
<path d="M170.779 32.107C169.838 32.107 169.007 31.8742 168.286 31.4087C167.58 30.9432 167.029 30.2825 166.632 29.4266C166.235 28.5557 166.036 27.5346 166.036 26.3633C166.036 25.177 166.235 24.1635 166.632 23.3226C167.029 22.4666 167.58 21.8059 168.286 21.3404C169.007 20.8749 169.838 20.6422 170.779 20.6422C171.676 20.6422 172.456 20.8674 173.117 21.3179C173.794 21.7684 174.25 22.3615 174.485 23.0973H174.243V17.2411C174.243 16.7756 174.36 16.4227 174.595 16.1824C174.831 15.9422 175.169 15.822 175.61 15.822C176.051 15.822 176.39 15.9422 176.625 16.1824C176.875 16.4227 177 16.7756 177 17.2411V30.6204C177 31.0859 176.882 31.4463 176.647 31.7015C176.412 31.9418 176.074 32.0619 175.632 32.0619C175.191 32.0619 174.853 31.9418 174.618 31.7015C174.382 31.4463 174.265 31.0859 174.265 30.6204V28.8635L174.507 29.5392C174.287 30.3201 173.838 30.9432 173.162 31.4087C172.485 31.8742 171.691 32.107 170.779 32.107ZM171.551 29.9672C172.095 29.9672 172.573 29.832 172.985 29.5617C173.397 29.2914 173.713 28.8935 173.934 28.368C174.169 27.8274 174.287 27.1592 174.287 26.3633C174.287 25.162 174.037 24.2686 173.537 23.6829C173.037 23.0823 172.375 22.782 171.551 22.782C171.007 22.782 170.529 22.9171 170.117 23.1874C169.706 23.4427 169.382 23.8406 169.147 24.3812C168.926 24.9068 168.816 25.5675 168.816 26.3633C168.816 27.5496 169.066 28.4505 169.566 29.0662C170.066 29.6669 170.728 29.9672 171.551 29.9672Z" fill="white"/>
<path d="M28.2055 43.4359C25.0495 46.9098 19.4962 46.9431 16.2984 43.5072C14.8701 41.9726 15.9795 39.5142 18.1061 39.5015L26.3495 39.4521C28.4761 39.4394 29.6151 41.8843 28.2055 43.4359Z" fill="white"/>
<path fill-rule="evenodd" clip-rule="evenodd" d="M35.9693 39.1689C34.3051 40.462 31.9545 40.0348 30.5456 38.474L26.0691 33.5151C24.265 31.5165 21.0981 31.5165 19.294 33.5151L14.4492 38.882C13.0757 40.4036 10.8018 40.8549 9.13392 39.6534C3.59716 35.6648 0 29.212 0 21.9302C0 9.8185 9.95177 0 22.2279 0C34.504 0 44.4558 9.8185 44.4558 21.9302C44.4558 28.9241 41.1374 35.1533 35.9693 39.1689ZM15.5173 24.3869L19.7186 29.292C21.053 30.8499 23.4028 30.8499 24.7372 29.292L28.9385 24.3869C30.2871 22.8124 29.5917 20.3204 27.6397 19.7328C24.105 18.6689 20.3508 18.6689 16.8161 19.7328C14.8641 20.3204 14.1687 22.8124 15.5173 24.3869ZM15.6419 13.9954C15.6419 15.814 14.1675 17.2884 12.3488 17.2884C10.5302 17.2884 9.05581 15.814 9.05581 13.9954C9.05581 12.1767 10.5302 10.7023 12.3488 10.7023C14.1675 10.7023 15.6419 12.1767 15.6419 13.9954ZM32.107 17.2884C33.9257 17.2884 35.4 15.814 35.4 13.9954C35.4 12.1767 33.9257 10.7023 32.107 10.7023C30.2883 10.7023 28.814 12.1767 28.814 13.9954C28.814 15.814 30.2883 17.2884 32.107 17.2884Z" fill="white"/>
</svg>
